<?xml version="1.0" encoding="UTF-8" standalone="no"?>
<!-- Created with Inkscape (http://www.inkscape.org/) -->

<svg
   xmlns:dc="http://purl.org/dc/elements/1.1/"
   xmlns:cc="http://creativecommons.org/ns#"
   xmlns:rdf="http://www.w3.org/1999/02/22-rdf-syntax-ns#"
   xmlns:svg="http://www.w3.org/2000/svg"
   xmlns="http://www.w3.org/2000/svg"
   xmlns:sodipodi="http://sodipodi.sourceforge.net/DTD/sodipodi-0.dtd"
   xmlns:inkscape="http://www.inkscape.org/namespaces/inkscape"
   width="210mm"
   height="297mm"
   viewBox="0 0 210 297"
   version="1.1"
   id="svg8"
   inkscape:version="0.92.1 r15371"
   sodipodi:docname="moosen.svg">
  <defs
     id="defs2" />
  <sodipodi:namedview
     id="base"
     pagecolor="#00ff00"
     bordercolor="#666666"
     borderopacity="1.0"
     inkscape:pageopacity="1"
     inkscape:pageshadow="2"
     inkscape:zoom="0.49497475"
     inkscape:cx="653.82466"
     inkscape:cy="622.00638"
     inkscape:document-units="mm"
     inkscape:current-layer="layer1"
     showgrid="false"
     inkscape:window-width="1920"
     inkscape:window-height="1057"
     inkscape:window-x="-8"
     inkscape:window-y="-8"
     inkscape:window-maximized="1"
     inkscape:pagecheckerboard="true"
     inkscape:measure-start="0,0"
     inkscape:measure-end="0,0" />
  <metadata
     id="metadata5">
    <rdf:RDF>
      <cc:Work
         rdf:about="">
        <dc:format>image/svg+xml</dc:format>
        <dc:type
           rdf:resource="http://purl.org/dc/dcmitype/StillImage" />
        <dc:title></dc:title>
      </cc:Work>
    </rdf:RDF>
  </metadata>
  <g
     inkscape:label="Layer 1"
     inkscape:groupmode="layer"
     id="layer1">
    <path
       style="fill:#000000;fill-opacity:1;stroke-width:0.21166667"
       d="m 112.9028,296.87773 c -0.13458,-0.35397 -0.18851,-31.05825 -0.15352,-87.41078 0.0498,-80.15039 0.0807,-86.89198 0.40075,-87.21198 0.23588,-0.23587 0.50671,-0.29881 0.84666,-0.19674 0.27492,0.0825 15.54936,15.2399 33.94319,33.68304 29.5293,29.60844 33.51765,33.53333 34.07833,33.53619 0.56357,0.003 4.38525,-3.75638 33.97251,-33.41751 18.33562,-18.3814 33.5887,-33.58198 33.89575,-33.77907 0.50776,-0.32594 0.58832,-0.32822 0.89126,-0.0253 0.18316,0.18317 0.38767,0.63953 0.45447,1.01414 0.0668,0.37461 0.0944,25.65567 0.0612,56.18012 -0.049,45.19329 -0.11132,55.55012 -0.33539,55.77417 -0.22081,0.22081 -3.36569,0.27516 -15.92036,0.27516 -14.73594,0 -15.66717,-0.022 -16.02317,-0.37791 -0.35481,-0.35473 -0.38445,-1.42473 -0.4838,-17.4625 l -0.10584,-17.08459 -0.50074,-0.0708 c -0.41726,-0.059 -3.40404,2.82983 -17.91767,17.33021 -14.43877,14.42561 -17.51423,17.40105 -17.98595,17.40105 -0.47166,0 -3.55007,-2.97713 -17.99258,-17.40048 -14.44373,-14.42462 -17.50845,-17.38848 -17.91997,-17.33021 l -0.49642,0.0703 -0.10584,32.82163 -0.10583,32.82163 -0.88466,1.04504 c -0.48656,0.57478 -7.4904,7.6411 -15.56404,15.70295 -15.65709,15.63419 -15.51671,15.51075 -16.04838,14.11231 z m 31.75625,-65.49369 v -34.18457 l 18.67928,18.67929 18.67929,18.67928 18.67988,-18.67899 18.67988,-18.67899 v 18.67914 18.67914 h 15.5575 15.5575 v -56.0385 -56.03852 l -34.23725,34.23677 -34.23723,34.23675 -34.23694,-34.23692 -34.23692,-34.23693 v 87.10022 87.10022 l 15.55751,-15.55642 15.5575,-15.55642 z m -57.628978,58.11289 c -11.730478,-4.11408 -21.551844,-7.62671 -21.82526,-7.80586 -0.273414,-0.17916 -0.55794,-0.62984 -0.632276,-1.00152 -0.07434,-0.37169 -0.135159,-16.75334 -0.135159,-36.40369 0,-19.65035 -0.05781,-35.87856 -0.12848,-36.06271 -0.191162,-0.49815 -0.489869,-0.40616 -0.729738,0.22473 -0.279984,0.73643 -1.191296,5.35745 -2.749025,13.93963 -0.697306,3.84175 -1.407649,7.29456 -1.578536,7.67291 -0.251642,0.55715 -0.433044,0.68792 -0.954267,0.68792 -0.748151,0 -0.115738,0.82707 -7.75638,-10.14379 -4.151788,-5.96136 -5.258314,-7.69262 -5.399424,-8.44795 -0.22748,-1.21764 -0.215802,-51.49434 0.01223,-52.67201 0.201702,-1.04165 0.0033,-0.76648 10.241787,-14.20418 4.28295,-5.62123 7.973871,-10.5266 8.202047,-10.90083 0.228177,-0.37423 0.415225,-0.8851 0.415659,-1.13527 4.23e-4,-0.25017 -3.388911,-6.10507 -7.531879,-13.01088 -4.142971,-6.90581 -7.667221,-12.81621 -7.831667,-13.13422 -0.164451,-0.318 -0.298999,-0.97123 -0.298999,-1.45162 0,-0.48038 1.291076,-6.795423 2.86906,-14.033424 1.577981,-7.238002 3.053482,-14.008787 3.278888,-15.046188 0.5621,-2.586973 1.261309,-3.261428 2.268717,-2.188399 0.245921,0.261938 3.653395,6.238875 7.572168,13.282084 15.790698,28.380617 17.748357,31.886967 18.225889,32.644227 1.031499,1.63575 0.14888,1.53994 14.187099,1.53994 11.757784,0 12.565594,0.0236 12.920474,0.37797 0.36152,0.36098 0.37854,2.67124 0.37854,51.37621 v 50.99823 l -0.48031,0.48033 -0.48032,0.48032 -9.785521,0.0478 c -5.382034,0.0263 -9.903382,0.0509 -10.047444,0.0547 -0.276103,0.007 -0.769716,0.72845 -2.395341,3.49944 -0.546378,0.93133 -1.954581,3.26496 -3.129346,5.18583 -1.174765,1.92088 -12.387203,19.79726 -12.783007,20.49576 l 1.170513,0.0853 c 0,0 9.872099,-16.91846 12.742443,-21.5449 2.765135,-4.45685 4.129502,-6.43606 4.68914,-6.80225 0.543374,-0.35556 1.267363,-0.38263 10.067033,-0.3763 l 9.48154,0.007 0.47532,0.47528 0.4753,0.4753 0.0548,34.37124 c 0.0353,22.16946 -0.0193,34.56572 -0.1535,34.91914 -0.16715,0.43963 -0.34527,0.54563 -0.90147,0.53642 -0.38125,-0.006 -10.290827,-3.37754 -22.021303,-7.4916 z m 22.280638,-27.73942 v -34.6075 h -9.602088 -9.602091 l -8.654159,13.99944 c -4.759789,7.69969 -8.624058,14.10032 -8.587262,14.22362 0.03679,0.12329 3.786395,6.35375 8.332447,13.84545 4.546054,7.49173 8.230699,13.65227 8.188103,13.69014 -0.0426,0.0378 -4.544913,-1.46171 -10.005147,-3.33235 l -9.927697,-3.40117 0.136371,-5.09215 c 0.075,-2.80069 0.199705,-7.68221 0.277114,-10.84783 l 0.140743,-5.75568 9.124138,-14.88182 9.12414,-14.88182 10.527695,-0.0549 10.527693,-0.0549 V 173.59637 122.58666 H 96.022976 82.735239 l -4.683657,-8.41375 C 75.475569,109.54535 70.683068,100.94904 67.401578,95.069997 64.120086,89.190955 60.232995,82.213892 58.763596,79.565413 56.40575,75.315573 55.764095,74.32171 55.75717,74.908746 c -0.0011,0.08731 -1.520264,7.112 -3.376075,15.610417 l -3.374202,15.451667 7.848336,13.12333 c 4.316584,7.21784 8.024423,13.41686 8.239639,13.77561 l 0.391302,0.65227 -9.834597,12.89439 -9.834596,12.89441 -0.0017,26.45833 -0.0017,26.45834 6.049017,8.67833 c 6.426348,9.21967 6.454898,9.25938 6.573251,9.14104 0.04218,-0.0422 1.551106,-8.05987 3.353156,-17.81705 1.802049,-9.7572 3.325586,-17.78948 3.385636,-17.84953 0.06005,-0.06 0.109182,19.37362 0.109182,43.18595 v 43.29513 l 4.28625,1.50918 c 2.357437,0.83005 12.239625,4.30721 21.960417,7.72698 9.720794,3.41979 17.697984,6.22897 17.727084,6.24262 0.0291,0.0138 0.0529,-15.54853 0.0529,-34.58265 z M 58.220826,178.99302 c -5.336195,-1.01974 -7.04091,-1.42092 -7.315835,-1.72169 -0.197147,-0.21569 -1.056958,-1.18225 -1.910692,-2.14791 l -1.552243,-1.75576 1.638427,-5.33508 c 0.901135,-2.93429 1.700894,-5.40074 1.777245,-5.48098 0.176676,-0.18567 21.880888,11.55292 21.834092,11.80884 -0.05135,0.28086 -7.039527,6.01546 -7.295363,5.98668 -0.120036,-0.0136 -3.34907,-0.62285 -7.175631,-1.3541 z m 7.285114,0.10865 c 0.306948,0 4.427872,-3.39103 4.787005,-3.93914 0.295247,-0.45059 0.296888,-0.55789 0.01501,-0.98211 -0.283796,-0.42712 -4.811789,-2.96206 -14.548913,-8.14502 -1.804459,-0.9605 -3.519858,-1.74726 -3.812001,-1.74836 -0.292142,-0.002 -0.64227,0.17587 -0.778061,0.39329 -0.363085,0.58141 -2.394934,7.46479 -2.394934,8.11346 0,1.01827 2.508933,3.75639 3.81,4.15802 0.407458,0.1258 3.074458,0.65541 5.926667,1.17691 6.515987,1.19143 6.191785,1.13932 6.526062,1.04907 0.155042,-0.0419 0.366167,-0.0761 0.469168,-0.0761 z m 21.156437,101.37991 c 0,-0.42051 -0.843491,-1.86156 -7.737166,-13.21835 -3.812489,-6.28078 -6.753477,-12.09912 -6.804447,-12.33547 l -1.170513,-0.0853 c 0,0 -0.07898,2.28265 -0.308772,10.51341 -0.265938,9.52532 -0.262996,9.74405 0.135543,10.07745 0.22406,0.18743 2.865988,1.17909 5.870952,2.20368 3.004964,1.02462 6.177945,2.12556 7.05107,2.44653 1.642766,0.60395 2.963333,0.78135 2.963333,0.39808 z m 94.799663,-97.91992 c -0.24494,-0.29511 -0.3005,-13.94579 -0.35439,-87.058138 -0.0435,-58.974457 0.006,-86.8910498 0.1535,-87.2799998 0.56578,-1.48812 -1.00665,-2.973798 35.01434,33.0827068 24.89404,24.918591 33.74663,33.655434 34.10139,33.655434 0.35441,0 9.25597,-8.763888 34.19458,-33.665714 25.95764,-25.919325 33.81678,-33.6510708 34.1558,-33.6020848 0.24221,0.035 0.56071,0.301754 0.70777,0.592796 0.40008,0.791686 0.29259,112.0361198 -0.10864,112.4373398 -0.22081,0.22081 -3.36569,0.27516 -15.92036,0.27516 -14.73594,0 -15.66717,-0.022 -16.02317,-0.37789 -0.35482,-0.35475 -0.38445,-1.42475 -0.48381,-17.4625 l -0.10583,-17.084607 -0.50785,-0.07178 c -0.4274,-0.06041 -3.2783,2.716043 -17.99167,17.521757 -11.67458,11.74783 -17.62447,17.59205 -17.90715,17.58909 -0.27671,-0.003 -6.47177,-6.09216 -17.88583,-17.58038 -17.42684,-17.540052 -18.0473,-18.119043 -18.54821,-17.308554 -0.087,0.140782 -0.16408,14.880724 -0.17126,32.755414 -0.009,22.28371 -0.0828,32.61704 -0.23514,32.8735 -0.12217,0.20571 -7.1167,7.27803 -15.54338,15.71625 -10.98385,10.99885 -15.45277,15.34221 -15.78574,15.34221 -0.25544,0 -0.59516,-0.1575 -0.75495,-0.35001 z m 31.56534,-65.37181 V 82.899463 l 18.67929,18.679287 18.67929,18.67929 18.67988,-18.67899 18.67988,-18.67899 v 18.67914 18.67913 h 15.5575 15.5575 V 64.219824 8.1813162 L 284.62347,42.418074 250.38623,76.654833 216.1493,42.417911 181.91238,8.1809902 V 95.387039 182.59309 l 15.5575,-15.55642 15.5575,-15.55642 z M 34.274875,156.01713 c -3.376083,-0.80181 -10.710333,-2.52311 -16.298334,-3.82507 L 7.8165411,149.82485 -24.25096,149.66195 c -17.637126,-0.0896 -32.333679,-0.22936 -32.659008,-0.31057 -0.325328,-0.0812 -0.817165,-0.44531 -1.092969,-0.8091 -0.275805,-0.3638 -7.47373,-12.66294 -15.99539,-27.33145 -8.521658,-14.6685 -16.495603,-28.3845 -17.719883,-30.48 -2.27026,-3.885828 -2.60471,-4.811512 -1.90139,-5.262523 0.29696,-0.190423 0.54352,-0.14928 1.17836,0.196639 0.44154,0.240597 5.08268,3.636501 10.313628,7.546456 31.421266,23.486308 31.722713,23.706638 32.31941,23.621868 0.563937,-0.0801 0.352685,0.20656 9.486441,-12.87327 3.861499,-5.529795 7.313693,-10.363733 7.671541,-10.742087 0.685872,-0.72517 1.326875,-0.859877 2.116091,-0.444699 0.254284,0.133769 5.224835,3.294658 11.045669,7.024195 5.820834,3.729541 10.779627,6.818621 11.019541,6.864641 0.239913,0.046 0.540488,-0.0431 0.667946,-0.19795 0.228572,-0.27775 4.709128,-10.325002 12.443795,-27.904104 2.1769532,-4.947708 5.601021,-12.710584 7.609042,-17.250834 2.00802,-4.54025 4.389454,-9.93844 5.292075,-11.99598 1.966701,-4.483124 2.530122,-5.218075 3.294323,-4.297268 0.401913,0.484275 0.319742,1.485297 -3.153202,38.412416 -3.908584,41.55921 -3.546073,37.21544 -3.119497,37.37913 0.190961,0.0733 0.506622,0.003 0.701469,-0.15503 0.365572,-0.29746 10.136341,-11.67841 21.963028,-25.582433 11.464851,-13.478634 10.889895,-12.856488 11.621819,-12.575621 0.554217,0.212672 0.632945,1.035056 0.277802,2.901905 -0.926527,4.870379 -3.529635,16.881189 -3.796534,17.517309 -0.16821,0.4009 -2.653407,5.69238 -5.522665,11.75884 -2.869256,6.06646 -5.272323,11.3074 -5.340149,11.64653 -0.08884,0.44422 -0.01505,0.71088 0.263944,0.95382 0.359183,0.31276 3.564888,1.44797 17.003099,6.02116 5.608306,1.90858 6.316701,2.31158 6.035159,3.43333 -0.140555,0.56001 -14.373202,19.4818 -15.275444,20.30815 -0.355226,0.32535 -0.767753,0.47043 -1.301934,0.4579 -0.430071,-0.0102 -3.544198,-0.67437 -6.920282,-1.47619 z m 15.445546,-9.81588 c 5.264424,-6.93691 7.456643,-9.97988 7.265239,-10.08471 -0.150764,-0.0826 -5.655742,-1.98766 -12.233284,-4.23353 -6.577542,-2.24588 -11.9935,-4.10797 -12.03546,-4.13798 -0.04196,-0.03 2.651772,-5.82591 5.986073,-12.87979 l 6.062364,-12.82523 1.911153,-9.215001 c 1.051133,-5.06825 1.881649,-9.292343 1.845594,-9.386871 -0.03606,-0.09453 -3.888255,4.317533 -8.560439,9.804578 -4.672187,5.487046 -12.467849,14.643694 -17.323697,20.348114 -4.855847,5.70442 -9.037572,10.58724 -9.292721,10.85072 -0.451295,0.46601 -0.364511,-0.57583 3.191294,-38.311676 2.010364,-21.334892 3.633034,-39.124088 3.605939,-39.531546 -0.03947,-0.59353 -2.780638,5.445911 -13.7861492,30.374168 C -1.198956,94.085747 -7.453855,108.17019 -7.543443,108.27127 c -0.08959,0.10107 -1.575619,-0.71861 -3.302288,-1.82151 -1.726666,-1.1029 -6.997021,-4.478 -11.711896,-7.500224 -4.714875,-3.022224 -8.679595,-5.558333 -8.81049,-5.635801 -0.14689,-0.08694 -3.619208,4.67908 -9.071017,12.450645 -4.858163,6.92532 -8.918482,12.6443 -9.022929,12.70886 -0.104447,0.0645 -9.881365,-7.11062 -21.726486,-15.94482 -11.845119,-8.834197 -21.675671,-16.144584 -21.845671,-16.245302 -0.20458,-0.121204 -0.15406,0.07964 0.14943,0.594011 0.25218,0.427421 8.42048,14.479181 18.15176,31.226121 l 17.693245,30.449 15.388994,0.14038 c 8.46395,0.0772 23.008998,0.1423 32.322331,0.14464 l 16.9333344,0.004 16.9333336,3.98153 c 15.506745,3.64608 16.963222,3.95334 17.288096,3.64714 0.195119,-0.18389 3.747472,-4.80494 7.894117,-10.26895 z M -57.697963,107.85369 c -3.665108,-2.74797 -9.711832,-7.24493 -13.437166,-9.993239 -17.210031,-12.696438 -21.693881,-16.1385 -22.125721,-16.984968 -0.22969,-0.450234 -1.50508,-3.465216 -2.8342,-6.699963 -2.38958,-5.815635 -2.42036,-5.912106 -2.75416,-8.633024 -0.18567,-1.513417 -0.53042,-4.228042 -0.76611,-6.032501 -0.23568,-1.804458 -0.57032,-4.471458 -0.74363,-5.926667 -0.17331,-1.455208 -0.40444,-3.217333 -0.51364,-3.915833 -1.14814,-7.34447 -1.16997,-9.528677 -0.23805,-23.812501 0.36078,-5.529792 0.80358,-12.483042 0.984,-15.451667 0.18042,-2.9686248 0.42148,-5.7489348 0.53569,-6.1784678 0.25389,-0.954843 0.90795,-1.249561 1.48679,-0.669942 0.36502,0.365512 2.35678,7.4034868 7.38918,26.1100768 4.27018,15.873197 5.03433,18.415001 5.53616,18.415001 0.34723,0 0.0859,-4.87531 -1.19703,-22.330834 -1.54915,-21.0779938 -1.5781,-21.6872008 -1.05134,-22.1243708 0.57024,-0.473261 1.25867,0.06356 1.92369,1.500055 0.33552,0.724755 4.229538,9.7574668 8.653371,20.0726928 9.301722,21.68919 8.379211,20.147986 10.087852,16.853407 1.59319,-3.071963 2.2679,-3.173097 3.927659,-0.588724 0.580564,0.903984 1.7985,2.818236 2.706523,4.253895 0.979786,1.549119 1.843115,2.683347 2.123643,2.790004 0.25998,0.09884 5.031933,0.858579 10.604342,1.688302 13.07451,1.946773 23.174306,3.449045 35.499033,5.280229 5.844286,0.868332 10.104052,1.596661 10.374395,1.773796 0.531321,0.348134 5.850723,13.500784 5.850723,14.466388 0,0.630056 -12.736297,29.577225 -13.279345,30.181415 -0.183115,0.20373 -0.580108,0.37016 -0.882212,0.36985 -0.358732,-4.3e-4 -3.449648,-1.88126 -8.910111,-5.421987 -13.809938,-8.954783 -13.225113,-8.610603 -13.888767,-8.173793 -0.129948,0.08553 -3.833325,5.29901 -8.229727,11.58551 -4.396404,6.2865 -8.236966,11.69194 -8.534584,12.01208 -0.320532,0.3448 -0.763768,0.58209 -1.087275,0.58209 -0.383455,0 -2.531246,-1.48836 -7.209983,-4.99631 z m 15.35106,-7.17453 c 6.056465,-8.685537 9.378574,-13.414774 9.637165,-13.719123 0.138002,-0.162423 0.79397,0.231563 6.024611,3.618475 4.442105,2.876324 6.089955,3.945867 11.430001,7.41868 3.026833,1.968454 5.516909,3.567678 5.533504,3.553818 0.01659,-0.0138 3.003847,-6.735172 6.638337,-14.936274 L 3.524881,71.703643 0.824992,64.918902 c -1.484941,-3.731607 -2.757693,-6.847101 -2.828339,-6.92332 -0.07064,-0.07622 -5.652946,-0.955466 -12.405113,-1.953881 -29.251206,-4.325256 -38.2632,-5.663539 -40.801765,-6.059075 -1.485972,-0.231531 -2.923839,-0.420964 -3.195261,-0.420964 -0.413967,0 -0.930161,-0.707782 -3.20319,-4.392084 -1.490333,-2.415646 -2.820854,-4.513885 -2.956717,-4.662752 -0.193099,-0.21158 -0.609401,0.493084 -1.906996,3.227917 -0.912986,1.924221 -1.720852,3.498585 -1.795257,3.498585 -0.07441,0 -4.274279,-9.623624 -9.333051,-21.385833 -5.058772,-11.762207 -9.225913,-21.2093948 -9.260323,-20.9937508 -0.0524,0.328109 3.572776,52.4659158 3.841987,55.2567408 0.125243,1.298355 -0.141279,0.847101 -0.667206,-1.129656 C -86.69621,47.667499 -98.6203,4.2687712 -98.69752,4.3459942 c -0.0403,0.04033 -0.60384,8.2446278 -1.25222,18.2317628 l -1.17889,18.158424 1.74355,13.567324 1.74355,13.567324 2.68878,6.561667 2.68879,6.561667 20.926207,15.578005 20.926208,15.578002 1.0804,-1.50217 c 0.594218,-0.82619 3.737127,-5.31217 6.984242,-9.96884 z"
       id="path3702"
       inkscape:connector-curvature="0"
       sodipodi:nodetypes="csccscsccsccscsccsscccccccccccccccccccccccccccccccccsccscssccsccscssccscscsccccccccccccccccccccccccscccsccscccccccccssscscsccccccscscscsccccscccscccsccccccsccccccsccscccscccssscccscsccscsccccscccccccccccccccccccccccccsccscccscsccsccssscsccscscsccscccccsccscscsscscscsscscsccsccccccccsscsccscssccsssccsssscssssccscscsssssscscscsssscssscsscscccccccsss" />
    <path
       style="fill:#ffffff;fill-opacity:1;stroke-width:2.85714293"
       d="M 690,359.93337 V 34.257781 L 818.57143,162.8054 947.14286,291.35302 1075.7143,162.8054 1204.2857,34.257781 V 243.53159 452.8054 H 1147.1429 1090 v -70 c 0,-38.5 -0.9741,-70 -2.1647,-70 -1.1906,0 -33.6453,31.5002 -72.1214,70.00043 l -69.95673,70.00043 -70.73573,-70.69329 -70.73573,-70.69328 V 441.42506 571.4304 L 747.14286,628.51969 690,685.60897 Z"
       id="path4509"
       inkscape:connector-curvature="0"
       transform="scale(0.26458333)" />
    <path
       style="fill:#6eb7ff;fill-opacity:1;stroke-width:0.75595242"
       d="m 113.54404,209.32226 v -86.84127 l 34.56697,34.56071 c 18.67238,18.66901 34.04714,33.69209 34.04714,33.69209 0,0 14.4376,-14.34634 33.86963,-33.7818 l 34.4646,-34.47067 c 0.14832,37.29533 -0.11945,74.98156 0,112.07702 l -15.39461,-2.8e-4 -15.72039,2.8e-4 -10e-6,-19.3726 10e-6,-17.98568 -18.11221,18.25113 -19.24755,19.10685 -18.87654,-18.87962 c -10.3041,-10.30578 -15.18375,-14.96187 -18.48203,-18.47895 0.0426,16.72857 -0.008,33.90481 -0.008,33.90481 l 0.008,34.46431 -15.26097,15.2086 -15.85404,15.90424 z"
       id="path4511"
       inkscape:connector-curvature="0"
       sodipodi:nodetypes="ccscsccccccccscccccc" />
    <path
       style="fill:#6eb7ff;fill-opacity:1;stroke-width:2.85714293"
       d="m -267.15412,367.15789 -81.56006,-61.03821 -19.43353,-48.51242 c 0,0 -6.4757,-42.52462 -14.07074,-103.64374 2.54364,-53.06043 5.28084,-81.191615 9.18253,-137.022227 0.3911,-1.272538 15.50438,53.668183 30.18982,107.583577 14.68545,53.9154 25.27392,95.15834 26.61651,97.51548 3.49435,6.13493 2.47834,4.3482 -5.07127,-101.1686 -3.6541,-51.071427 -7.30048,-102.197838 -7.00858,-102.554972 0.2919,-0.357134 18.91193,42.148154 36.88813,83.724302 17.9762,41.57615 32.28013,73.4871 33.61039,75.66466 1.96161,-3.50454 3.46253,-5.98285 6.09926,-11.51213 2.63673,-5.52929 6.20059,-13.87474 7.45672,-13.4526 1.25613,0.42214 11.9671,18.55475 11.9671,18.55475 l 10.81966,15.64064 90.29215,13.60798 c 12.01155,1.81027 95.882587,14.12288 104.412958,15.3695 l 19.2978151,3.1505 10.2830905,25.39305 10.5045514,26.54847 -24.271265,55.09301 c -13.279024,30.14188 -25.345958,57.23858 -25.695501,57.67706 -0.349572,0.43852 -43.624362,-28.15234 -43.624362,-28.15234 l -42.988817,-27.30813 -6.19497,8.74276 c -2.71275,3.35012 -14.66756,20.99646 -30.57879,43.6896 -15.91123,22.69318 -30.38757,43.40689 -30.38757,43.40689 0.31579,0 -34.46838,-25.36504 -76.73523,-56.99686 z"
       id="path4513"
       inkscape:connector-curvature="0"
       transform="scale(0.26458333)"
       sodipodi:nodetypes="sccccscssscssccsccccsccccsss" />
    <path
       style="fill:#fff9ff;fill-opacity:1;stroke-width:2.85714293"
       d="m 90,577.07689 -61.257167,-14.5272 -244.326273,-1.09236 -64.964,-111.58313 c -6.78498,-11.65398 -72.09673,-123.23416 -71.4804,-123.85049 0.61633,-0.61633 44.885,33.06194 86.26172,63.81876 41.37673,30.75682 77.65393,57.21007 77.65393,57.21007 0,0 16.82402,-21.75686 34.64286,-46.86794 17.81885,-25.11109 33.81229,-47.46822 34.88623,-47.5 1.07394,-0.0318 21.44884,13.07916 44.622811,28.04415 23.173975,14.96498 43.262546,28.9759 44.64126,28.51632 1.378743,-0.45957 23.1824005,-50.57566 50.198629,-111.36909 27.016229,-60.79342 54.872571,-124.48311 55.3554,-122.32629 0.718742,3.21086 -21.32169,242.07876 -25.556347,279.13859 -0.673343,5.89286 -0.444253,15.25998 -0.444253,15.25998 0.673951,-1.22857 31.077457,-36.44624 65.94703,-77.28775 34.8696,-40.8415 67.02628,-78.20639 67.44677,-77.7859 0.42049,0.42049 -4.31425,22.9532 -8.05237,40.19565 -5.89386,35.91099 -3.10095,26.04709 -22.48317,64.37292 -9.22465,21.49652 -19.75734,41.34256 -29.33883,62.97859 l 43.04014,15.07937 c 23.75303,8.32201 47.71399,15.92382 48.79659,16.95588 -6.69438,11.34109 -50.99001,70.21454 -58.55189,77.81262 C 144.61614,590.38967 122.22523,584.71914 90,577.07689 Z"
       id="path4515"
       inkscape:connector-curvature="0"
       transform="scale(0.26458333)"
       sodipodi:nodetypes="sccssscscscsccssscccsccs" />
    <path
       style="fill:none;fill-opacity:1;stroke-width:2.85714293"
       d="m 329.30888,1089.246 -82.1197,-28.9585 -0.73745,-163.02676 -0.73744,-163.02677 -11.05288,57.14286 c -6.07908,31.42857 -11.8648,61.28103 -12.85714,66.33877 -1.7923,9.13494 -1.9511,8.98471 -23.94713,-22.6518 L 175.71429,803.21609 V 702.13011 601.04417 l 35.71428,-46.75429 c 19.64286,-25.71486 35.71429,-48.27105 35.71429,-50.12488 0,-1.85383 -13.57315,-25.94036 -30.16255,-53.52561 l -30.16254,-50.15502 12.18016,-56.92033 c 9.39255,-43.89328 12.89626,-55.94099 15.3091,-52.64125 1.72091,2.3535 24.27727,42.30894 50.12524,88.78987 l 46.9963,84.51079 50.71429,0.005 50.71428,0.005 V 655.66254 847.09111 H 373.0507 333.24426 l -34.26052,55.98129 c -33.38102,54.5442 -34.30796,56.5062 -36.10845,76.42857 -1.01636,11.246 -1.43623,30.60133 -0.93304,43.01193 l 0.91489,22.5646 36.49659,12.8436 c 20.07313,7.0639 37.15958,12.1805 37.9699,11.3702 0.81032,-0.8103 -12.22882,-24.2576 -28.97587,-52.1049 -26.78644,-44.5412 -30.08495,-51.43103 -27.42136,-57.277 1.6653,-3.65491 16.12448,-27.9628 32.13151,-54.01751 l 29.10369,-47.3722 h 35.34777 35.34777 v 130 c 0,71.50001 -0.32143,129.92901 -0.71428,129.84231 -0.39286,-0.087 -37.66815,-13.1889 -82.83398,-29.116 z M 264.28271,670.09809 c 7.06977,-6.10952 12.21262,-11.70346 11.42857,-12.43095 -2.13319,-1.97925 -81.82708,-44.86174 -83.37223,-44.86174 -0.73315,0 -4.37394,9.6964 -8.09065,21.54757 l -6.75766,21.54757 8.39749,8.39506 c 6.02183,6.02011 13.65135,9.54257 26.96891,12.45126 30.75015,6.71614 36.87661,5.92405 51.42557,-6.64877 z"
       id="path4517"
       inkscape:connector-curvature="0"
       transform="scale(0.26458333)" />
    <path
       style="fill:#ffffff;fill-opacity:1;stroke-width:2.02030516"
       d="m 246.742,1061.5233 c 0.22165,-103.04567 0.21061,-229.47769 -0.80026,-325.44641 -9.11744,46.39317 -15.59999,83.81521 -25.62699,133.938 -15.69669,-22.28435 -30.03474,-43.18224 -47.16107,-67.89516 l 0.0128,-200.00001 c 16.56463,-22.37821 62.66935,-82.164 74.34026,-97.46948 -21.28586,-35.59714 -39.14374,-66.85254 -62.28388,-104.13056 12.99971,-36.25347 14.02616,-83.45777 26.02336,-118.8616 35.18709,64.837 62.87115,114.50309 101.22469,183.3303 h 100.17687 v 191.92898 191.92898 h -40.02881 -40.02883 l -34.40005,56.18573 -34.40006,56.18574 -1.18179,41.68139 -1.1818,41.6815 37.35151,12.4495 c 20.54332,6.8473 36.19283,10.9297 36.74097,10.3816 0.54814,-0.5482 -11.19048,-22.8275 -28.0501,-50.8191 -23.94385,-39.75337 -32.79586,-49.69187 -31.42782,-52.61212 0.96328,-2.05622 17.91385,-28.06471 34.58137,-55.32733 l 30.30458,-49.56841 35.86041,-0.0685 35.86042,-0.0685 c 0.3638,41.98316 0.19633,224.28046 -0.38253,260.98396 -51.48403,-17.8659 -113.81274,-40.2739 -165.5233,-58.4085 z m 14.66312,-389.68288 c 7.62408,-6.23749 13.86196,-12.01952 13.86196,-12.84896 0,-0.82943 -15.22805,-9.74581 -33.84011,-19.81414 -38.24627,-20.68962 -48.58652,-25.79063 -49.75191,-24.54337 -0.44564,0.47693 -3.65069,9.7785 -7.12234,20.67014 l -6.31209,19.80301 6.5919,7.95386 c 7.70284,9.29434 6.86774,8.95955 37.46038,15.01762 13.02386,2.57902 24.03311,4.7822 24.465,4.89595 0.43189,0.11374 7.02314,-4.89662 14.64721,-11.13411 z"
       id="path21"
       inkscape:connector-curvature="0"
       transform="scale(0.26458333)"
       sodipodi:nodetypes="ccccccccccccccccccccscscccccssscscsccs" />
  </g>
</svg>
