{
  "accessors": [
    {
      "bufferView": 2,
      "componentType": 5126,
      "count": 65532,
      "max": [
        58.931758880615234,
        6.8004755973815918,
        36.779747009277344
      ],
      "min": [
        0,
        0.0045099258422851562,
        0
      ],
      "type": "VEC3"
    },
    {
      "bufferView": 2,
      "byteOffset": 786384,
      "componentType": 5126,
      "count": 65532,
      "max": [
        0.99838608503341675,
        0.99999994039535522,
        0.99979585409164429
      ],
      "min": [
        -0.99610751867294312,
        -0.99999517202377319,
        -0.99660038948059082
      ],
      "type": "VEC3"
    },
    {
      "bufferView": 3,
      "componentType": 5126,
      "count": 65532,
      "max": [
        0.99945300817489624,
        0.99933832883834839,
        0.9998665452003479,
        1
      ],
      "min": [
        -0.99999773502349854,
        -0.99837648868560791,
        -0.99995929002761841,
        -1
      ],
      "type": "VEC4"
    },
    {
      "bufferView": 1,
      "componentType": 5126,
      "count": 65532,
      "max": [
        0.9977869987487793,
        0.99982398748397827
      ],
      "min": [
        0.00069299997994676232,
        0.003312000073492527
      ],
      "type": "VEC2"
    },
    {
      "bufferView": 0,
      "componentType": 5125,
      "count": 333165,
      "max": [
        65531
      ],
      "min": [
        0
      ],
      "type": "SCALAR"
    },
    {
      "bufferView": 2,
      "byteOffset": 1572768,
      "componentType": 5126,
      "count": 9548,
      "max": [
        58.227096557617188,
        6.4246397018432617,
        37.037250518798828
      ],
      "min": [
        1.5522499084472656,
        0,
        0.43948173522949219
      ],
      "type": "VEC3"
    },
    {
      "bufferView": 2,
      "byteOffset": 1687344,
      "componentType": 5126,
      "count": 9548,
      "max": [
        0.98976922035217285,
        0.99999946355819702,
        0.99888545274734497
      ],
      "min": [
        -0.98261350393295288,
        -0.99945759773254395,
        -0.95972251892089844
      ],
      "type": "VEC3"
    },
    {
      "bufferView": 3,
      "byteOffset": 1048512,
      "componentType": 5126,
      "count": 9548,
      "max": [
        0.99674302339553833,
        0.99821043014526367,
        0.99987334012985229,
        1
      ],
      "min": [
        -0.99957036972045898,
        -0.99021857976913452,
        -0.99964702129364014,
        -1
      ],
      "type": "VEC4"
    },
    {
      "bufferView": 1,
      "byteOffset": 524256,
      "componentType": 5126,
      "count": 9548,
      "max": [
        0.99621999263763428,
        0.99946701526641846
      ],
      "min": [
        0.013629999943077564,
        0.024321999400854111
      ],
      "type": "VEC2"
    },
    {
      "bufferView": 0,
      "byteOffset": 1332660,
      "componentType": 5125,
      "count": 32703,
      "max": [
        9547
      ],
      "min": [
        0
      ],
      "type": "SCALAR"
    }
  ],
  "asset": {
    "generator": "Sketchfab (OSG glTF plugin)",
    "version": "2.0"
  },
  "bufferViews": [
    {
      "buffer": 0,
      "byteLength": 1463472,
      "byteOffset": 0,
      "name": "floatBufferViews",
      "target": 34963
    },
    {
      "buffer": 0,
      "byteLength": 600640,
      "byteOffset": 1463472,
      "byteStride": 8,
      "name": "floatBufferViews",
      "target": 34962
    },
    {
      "buffer": 0,
      "byteLength": 1801920,
      "byteOffset": 2064112,
      "byteStride": 12,
      "name": "floatBufferViews",
      "target": 34962
    },
    {
      "buffer": 0,
      "byteLength": 1201280,
      "byteOffset": 3866032,
      "byteStride": 16,
      "name": "floatBufferViews",
      "target": 34962
    }
  ],
  "buffers": [
    {
      "byteLength": 5067312,
      "uri": "scene.bin"
    }
  ],
  "images": [
    {
      "uri": "textures/material_0_baseColor.jpeg"
    }
  ],
  "materials": [
    {
      "doubleSided": true,
      "emissiveFactor": [
        0,
        0,
        0
      ],
      "name": "material_0",
      "pbrMetallicRoughness": {
        "baseColorFactor": [
          1,
          1,
          1,
          1
        ],
        "baseColorTexture": {
          "index": 0,
          "texCoord": 0
        },
        "metallicFactor": 0,
        "roughnessFactor": 0
      }
    }
  ],
  "meshes": [
    {
      "primitives": [
        {
          "attributes": {
            "NORMAL": 1,
            "POSITION": 0,
            "TANGENT": 2,
            "TEXCOORD_0": 3
          },
          "indices": 4,
          "material": 0,
          "mode": 4
        }
      ]
    },
    {
      "primitives": [
        {
          "attributes": {
            "NORMAL": 6,
            "POSITION": 5,
            "TANGENT": 7,
            "TEXCOORD_0": 8
          },
          "indices": 9,
          "material": 0,
          "mode": 4
        }
      ]
    }
  ],
  "nodes": [
    {
      "children": [
        1
      ],
      "name": "RootNode (gltf orientation matrix)",
      "rotation": [
        -0.70710678118654746,
        -0,
        -0,
        0.70710678118654757
      ]
    },
    {
      "children": [
        2
      ],
      "matrix": [
        -0.99998807907104492,
        0.0048815459012985229,
        0,
        0,
        0,
        0,
        1,
        0,
        0.0048815459012985229,
        0.99998807907104492,
        0,
        0,
        58.841598510742188,
        -15.130839347839355,
        14.98721981048584,
        1
      ],
      "name": "RootNode (model correction matrix)"
    },
    {
      "children": [
        3
      ],
      "name": "beach.obj.cleaner.gles"
    },
    {
      "children": [
        4,
        5
      ],
      "name": "Geode"
    },
    {
      "mesh": 0,
      "name": ""
    },
    {
      "mesh": 1,
      "name": ""
    }
  ],
  "samplers": [
    {
      "magFilter": 9729,
      "minFilter": 9987,
      "wrapS": 10497,
      "wrapT": 10497
    }
  ],
  "scene": 0,
  "scenes": [
    {
      "name": "OSG_Scene",
      "nodes": [
        0
      ]
    }
  ],
  "textures": [
    {
      "sampler": 0,
      "source": 0
    }
  ]
}

